<svg width="22" height="22" viewBox="0 0 22 22" fill="none" xmlns="http://www.w3.org/2000/svg">
<path d="M1.48038 17.4605C0.634675 18.3066 0.634675 19.6735 1.48038 20.5196C1.90224 20.9415 2.45601 21.1534 3.01018 21.1534C3.56395 21.1534 4.11771 20.9415 4.53958 20.5196L11.0402 14.0186L17.5409 20.5196C17.9627 20.9415 18.5165 21.1534 19.0703 21.1534C19.6244 21.1534 20.1782 20.9415 20.6001 20.5196C21.4458 19.6735 21.4458 18.3066 20.6001 17.4605L14.099 10.9598L20.6001 4.45916C21.4458 3.61306 21.4458 2.24607 20.6001 1.39997C19.754 0.55426 18.387 0.55426 17.5409 1.39997L11.0402 7.90101L4.53958 1.39997C3.69348 0.55426 2.32648 0.55426 1.48038 1.39997C0.634675 2.24607 0.634675 3.61306 1.48038 4.45916L7.98142 10.9598L1.48038 17.4605Z" fill="#E00000"/>
</svg>
