<svg width="21" height="21" viewBox="0 0 21 21" fill="none" xmlns="http://www.w3.org/2000/svg">
<g clip-path="url(#clip0_2029_5)">
<path d="M10.4925 0.658295C5.03101 0.658295 0.603012 5.08629 0.603012 10.5477C0.603012 16.0092 5.03101 20.4372 10.4925 20.4372C15.9539 20.4372 20.3819 16.0092 20.3819 10.5477C20.3819 5.08629 15.9539 0.658295 10.4925 0.658295ZM10.4925 16.8605C9.71943 16.8605 9.19035 16.2647 9.19035 15.4925C9.19035 14.698 9.74169 14.1244 10.4925 14.1244C11.2861 14.1244 11.7946 14.698 11.7946 15.4925C11.7946 16.2655 11.2861 16.8605 10.4925 16.8605ZM11.0051 11.6364C10.8081 12.3081 10.1875 12.3196 9.98068 11.6364C9.74251 10.8485 8.89614 7.85781 8.89614 5.91536C8.89614 3.35235 12.1028 3.33998 12.1028 5.91536C12.102 7.86935 11.2103 10.9376 11.0051 11.6364Z" fill="#E00000"/>
</g>
<defs>
<clipPath id="clip0_2029_5">
<rect width="19.7789" height="19.7789" fill="white" transform="translate(0.603012 0.658295)"/>
</clipPath>
</defs>
</svg>
